<?xml version="1.0" encoding="UTF-8"?>
<!DOCTYPE svg PUBLIC "-//W3C//DTD SVG 1.1//EN" "http://www.w3.org/Graphics/SVG/1.1/DTD/svg11.dtd">
<!-- Creator: CorelDRAW X6 -->
<svg xmlns="http://www.w3.org/2000/svg" xml:space="preserve" width="8.26388in" height="11.6944in" version="1.1" style="shape-rendering:geometricPrecision; text-rendering:geometricPrecision; image-rendering:optimizeQuality; fill-rule:evenodd; clip-rule:evenodd"
viewBox="0 0 8264 11694"
 xmlns:xlink="http://www.w3.org/1999/xlink">
 <defs>
  <style type="text/css">
   <![CDATA[
    .fil0 {fill:#FFF}
   ]]>
  </style>
 </defs>
 <g id="__x0023_Layer_x0020_1">
  <metadata id="CorelCorpID_0Corel-Layer"/>
  <path class="fil0" d="M4984 8850c72,18 150,11 234,-40 114,-70 209,-203 209,-203 0,0 177,-213 311,57 134,269 234,340 254,330 0,0 295,92 396,-92 102,-184 2,-400 4,-403 2,-4 -41,-311 190,-330 224,-19 312,136 311,260 0,124 -2,381 0,381 2,0 24,197 201,168 177,-28 169,-168 168,-187 -2,-23 -47,-116 6,-123 102,-13 -34,180 157,133 92,-22 50,-125 51,-110 2,45 -123,100 -114,-7 3,-35 -4,-107 -86,-107 -82,0 -114,112 -114,112 0,0 -35,165 -94,157 -58,-7 -61,-29 -61,-29 0,0 -35,-87 -6,-357 28,-271 -92,-435 -366,-398 -273,37 -403,278 -398,465 5,186 108,377 -61,402 -168,26 -216,-133 -241,-215 -25,-81 -118,-356 -338,-322 -221,34 -317,206 -317,206 0,0 -130,228 -250,100 -18,-20 -33,-37 -46,-53l0 205zm0 -2600l0 0c16,-65 39,-118 76,-135 -21,42 -17,457 38,592 52,53 393,52 469,-5 19,-2 -54,-228 24,-421 6,167 61,333 114,418 150,100 1933,-376 815,-1678 373,501 -440,899 -311,263 -86,-9 -113,-4 -253,21 55,-70 161,-139 182,-164 17,-39 -132,-165 -150,-275 -17,-110 52,-230 57,-250 5,-21 -81,-48 -134,-69 -54,-21 -164,-63 -164,-63 0,0 107,-12 179,12 71,24 149,27 149,27 0,0 3,-212 36,-397 33,-185 122,-403 122,-403 0,0 -52,72 -366,165 -314,93 -366,70 -366,70 0,0 -67,-32 -99,-309 -32,-276 38,-436 38,-436 0,0 -197,198 -325,270 -36,20 -82,46 -131,72l0 112c39,-15 79,-32 108,-48 74,-43 197,-164 197,-164 0,0 -18,223 3,354 22,131 104,295 104,295 0,0 -82,11 -131,16 -48,5 -88,40 -88,40 0,0 -13,67 -16,110 -3,43 24,129 24,129 0,0 -32,-27 -75,-62 -43,-35 -109,-72 -109,-72 0,0 -7,3 -17,9l0 76c11,-10 19,-16 19,-16 0,0 78,57 126,97 48,40 158,54 158,54 0,0 -38,-75 -54,-142 -16,-67 11,-143 11,-143 0,0 19,-18 67,-34 48,-16 96,-16 96,-16l16 18c0,0 225,-92 350,-119 126,-27 300,-148 300,-148 0,0 -80,205 -96,291 -16,86 -11,177 -11,177 0,0 -123,35 -216,46 -94,11 -206,67 -206,67 0,0 96,35 176,62 80,26 198,101 198,101 0,0 -14,64 -30,94 -16,29 -18,86 -18,86 0,0 -53,0 -128,21 -75,22 -123,62 -123,62 0,0 16,-32 50,-94 35,-61 121,-118 121,-118 0,0 -121,-67 -241,-102 -120,-35 -206,-24 -206,-24 0,0 80,-110 123,-152 43,-43 -32,-8 -32,-8 0,0 -32,32 -75,67 -43,34 -80,85 -80,85 0,0 -147,19 -228,32 -20,4 -44,10 -67,18l0 61c97,-26 229,-51 348,-46 203,-5 363,85 363,85 0,0 -54,63 -107,122 -54,59 -80,189 -80,189 0,0 118,-59 187,-97 70,-37 161,-37 161,-37 0,0 43,64 85,112 43,48 59,161 59,161 0,0 -75,53 -134,133 -58,81 -64,156 -64,156 0,0 75,-49 145,-70 69,-21 128,-21 128,-21 -48,237 586,585 571,-51 17,11 294,482 -24,850 -319,370 -790,402 -798,408 -8,6 -54,-48 -123,-182 -70,-133 -59,-486 -59,-486 0,0 -155,182 -198,417 -43,235 -11,305 -11,305 0,0 -32,26 -107,26 -75,0 -112,-26 -112,-26 0,0 -48,-171 -80,-284 -32,-112 16,-454 16,-454 -79,47 -130,118 -166,196l0 171zm0 -1043l0 0 0 -56c249,-129 598,366 751,473 -236,-173 -542,-499 -718,-420 -4,6 -20,7 -33,3zm-336 2887l0 0c44,196 154,680 258,728 26,12 51,22 78,28l0 -205c-70,-87 -76,-162 -221,-701 -43,-160 -82,-308 -115,-445l0 595zm0 -1597l0 0c72,58 202,124 281,104 19,-53 23,-225 55,-351l0 -171c-64,137 -82,297 -126,398 -154,10 -185,-116 -189,-144 -8,18 110,1 187,-62 173,-140 55,-383 -75,-468 -42,-27 -88,-40 -133,-45l0 79c156,38 304,189 181,354 -54,72 -118,98 -181,97l0 209zm336 -2942l0 0c-128,68 -270,141 -270,141 0,0 26,11 46,52 21,41 41,64 41,64 0,0 -35,-26 -102,-70 -18,-12 -36,-22 -51,-30l0 115c38,1 92,8 136,33 75,43 171,129 171,129 0,0 -8,-89 -19,-156 -10,-67 -75,-126 -75,-126 0,0 60,-17 123,-40l0 -112zm0 719l0 0 0 76c-24,19 -62,53 -80,84 -27,45 -75,120 -75,120l22 110c0,0 66,-31 133,-52l0 61c-93,26 -154,54 -139,61 0,0 -41,237 -170,467 -8,15 -17,31 -27,46l0 -146c84,-169 116,-377 91,-413 -25,-21 -56,-41 -91,-59l0 -73c49,17 78,28 78,28 0,0 -29,-42 -78,-102l0 -107c27,25 43,40 43,40 0,0 -11,-58 -43,-145l0 -205c70,146 160,366 160,446 0,0 11,-51 61,-128 37,-56 88,-92 115,-109zm0 877l0 0c-4,2 -9,4 -13,7 -23,27 -7,43 13,49l0 -56zm-934 3655l0 0c248,0 398,7 408,4 14,-3 48,-35 -5,-37 -52,-3 -235,0 -403,-2l0 35zm0 -316l0 0c105,-3 203,-5 203,-5 0,0 64,-31 5,-41 -29,-6 -116,-6 -208,-5l0 51zm0 -330l0 0c104,-3 212,-6 212,-6 0,0 66,-13 9,-47 -17,1 -123,2 -221,3l0 50zm0 -306l0 0c23,-2 47,-4 72,-6 32,-2 20,-30 -2,-30 -13,0 -38,0 -70,0l0 36zm0 -331l0 0c60,2 100,4 100,4 0,0 47,-10 5,-34 -10,-6 -50,-11 -105,-16l0 46zm0 -734l0 0c10,-4 31,-16 1,-37 -1,0 -1,0 -1,-1l0 38zm0 -266l0 0c63,-1 114,1 113,3 -4,5 48,-19 15,-39 -13,-8 -68,-11 -128,-12l0 48zm0 -269l0 0 0 -47c100,3 208,-63 288,-236 61,-284 -115,-395 -288,-390l0 -95c143,8 266,75 266,75 0,0 222,-181 302,-405 11,-18 21,-36 30,-55l0 146c-125,208 -279,369 -279,369 4,0 93,110 80,161 0,2 94,-31 199,-19l0 79c-74,-19 -150,-12 -199,31 17,43 -39,210 -72,208 -23,52 121,209 271,212l0 209c-20,-17 -35,-33 -44,-46 -118,206 -76,549 44,1048l0 595c-6,-29 -11,-51 -14,-65 -92,-374 -231,-657 -229,-1060 1,-253 47,-537 94,-640 -124,-14 -153,-129 -184,-188 -29,46 -158,99 -265,113zm598 -2542l0 0c-38,-20 -62,-28 -62,-28 0,0 8,-12 -27,21 -35,32 -35,43 -35,43 0,0 -56,-97 -155,-159 -99,-61 -204,-232 -204,-232 0,0 -61,7 -115,50l0 208c51,-61 83,-125 83,-125 0,0 114,175 312,418 105,129 168,264 203,362l0 -205c-37,-78 -68,-135 -76,-138 0,0 -5,-24 3,-62 8,-37 30,-37 30,-37 0,0 17,-2 43,-1l0 -115zm0 663l0 0 0 107c-77,-94 -205,-234 -355,-331 -80,-52 -165,-96 -243,-132l0 -87c55,26 115,60 177,104 191,131 349,272 421,339zm0 181l0 0c-120,-42 -358,-121 -553,-164 -15,-3 -30,-6 -45,-9l0 74c216,38 447,93 598,172l0 -73zm-598 222l0 0 0 -77c85,-2 152,12 193,49 19,17 -20,34 -20,34 -48,-8 -106,-10 -173,-6zm-594 4016l0 0c113,10 248,17 381,15 77,-2 148,-3 213,-3l0 -35c-79,-1 -154,-3 -211,-6 -93,-6 -254,-12 -383,-21l0 50zm0 -316l0 0c117,6 314,14 329,16 12,2 144,-1 265,-4l0 -51c-98,1 -202,2 -257,-1 -74,-3 -244,-18 -337,-25l0 65zm0 -326l0 0c53,2 347,13 405,13 28,0 107,-2 189,-5l0 -50c-97,1 -187,1 -187,1 0,0 -387,-7 -397,-23 -10,-15 21,-155 21,-224 264,15 404,3 563,-10l0 -36c-161,0 -503,1 -554,-10 -9,-10 34,-262 38,-294 25,-12 347,1 516,9l0 -46c-176,-14 -500,-21 -500,-21 0,0 17,-188 51,-274 57,-29 396,-13 407,-17 4,1 75,-15 19,-42 -56,-27 -398,-19 -397,-24 1,-5 39,-236 72,-273 33,-37 343,-35 343,-35 0,0 2,-1 5,-2l0 -38c-43,-26 -315,-13 -315,-13 0,0 55,-182 92,-200 21,-11 133,-15 223,-15l0 -48c-88,-2 -186,-1 -188,-7 0,0 39,-125 122,-211 20,1 43,0 66,-3l0 -47c-184,-4 -347,-232 -287,-449 29,-106 157,-173 287,-177l0 -95c-77,-4 -160,9 -233,57 -211,140 -131,452 -131,452l-50 14c0,0 -102,-130 -147,-247 -7,-19 -19,-40 -33,-62l0 182c17,32 32,66 39,95 22,86 9,206 9,206 2,-2 21,14 84,-4 62,-19 66,-33 73,-36 0,0 -1,69 45,111 46,41 99,49 99,49 0,0 -181,197 -260,564 -37,176 -68,326 -89,436l0 849zm594 -4745l0 0c-15,12 -30,27 -42,46 -56,85 -107,152 -107,152 0,0 34,-96 51,-189 17,-93 59,-212 59,-212 0,0 -201,-82 -271,-201 -71,-119 -204,-301 -148,-441 -51,30 -96,66 -136,106l0 206c34,-69 58,-109 58,-109 0,0 59,169 129,293 71,125 215,226 218,228 4,2 -37,121 -25,254 12,133 -42,266 -42,266 0,0 99,-59 189,-127 25,-18 47,-41 67,-64l0 -208zm0 525l0 0 0 87c-161,-73 -294,-112 -294,-112 0,0 -56,52 -75,120 -19,68 -117,139 -117,139 0,0 15,-124 -30,-199 -45,-75 -68,-143 -68,-143 0,0 -3,0 -10,0l0 -75 77 8c22,2 70,225 77,262 0,0 17,-54 51,-97 34,-42 82,-85 82,-85 0,0 129,10 307,95zm0 451l0 0 0 74c-258,-45 -495,-65 -552,-74 0,0 4,51 7,111 2,60 -17,166 -17,166 0,0 -12,-12 -32,-29l0 -315c122,8 389,27 594,67zm0 318l0 0 0 77c-156,8 -359,47 -594,115l0 -49c209,-75 432,-138 594,-143zm-2873 3552l0 0c-58,155 138,515 340,281 164,-189 -2,-498 -116,-629 0,0 -158,-180 -297,-163 -140,17 -258,161 -258,161 0,0 -46,150 -51,304 0,2 0,4 0,6l0 12c2,154 71,368 116,495 91,251 502,544 784,352 188,-128 150,-289 150,-289 0,0 -81,-448 115,-504 196,-56 152,150 165,358 14,209 70,243 216,262 145,19 251,-141 251,-141 0,0 58,-110 157,-102 106,9 164,112 282,132 115,19 154,-26 154,-26 0,0 113,18 271,32l0 -50c-122,-9 -215,-22 -195,-41 9,-10 159,-229 114,-229 -16,0 23,2 81,4l0 -65c-40,-3 -65,-5 -61,-3 10,4 71,-223 53,-258l8 0 0 -849c-23,120 -35,190 -35,190 0,0 -85,350 -96,503 -11,152 -73,530 -73,530 0,0 -17,125 -102,141 -84,17 -159,-37 -159,-37 0,0 -175,-138 -252,-76 -77,61 -188,119 -188,119 0,0 -132,157 -236,77 -105,-80 -59,-236 -59,-236 0,0 80,-379 -197,-351 -276,28 -353,228 -350,427 3,200 74,391 -172,412 -246,22 -384,-113 -464,-289 -80,-175 -295,-476 -151,-728 144,-252 255,-178 378,-28 123,151 170,328 157,458 -20,204 -142,139 -219,33 -46,-58 -67,-190 -61,-195zm2279 -5585l0 0c-353,356 -300,1046 -305,1029l-144 -1c0,0 15,24 2,75 -14,50 -34,101 -34,101 0,0 -26,-127 -137,-235 -111,-108 -181,-145 -181,-145 -127,-64 45,-216 154,-76 -19,-128 -17,-259 -230,-270 -212,-12 -362,210 -472,616 -111,406 55,870 55,870 0,0 89,-6 160,-46 70,-40 172,-108 172,-108 0,0 -52,114 -123,176 -71,61 -117,92 -117,92 0,0 -366,-102 -621,673 -255,774 274,952 621,955 -558,-316 -200,-761 135,-215 282,124 357,143 541,46 50,-74 50,-105 65,-175 15,-71 3,-205 3,-205 0,0 58,85 77,186 18,102 21,185 21,185 0,0 47,36 170,30 123,-7 143,-22 143,-22 0,0 32,-79 19,-202 -12,-123 -46,-239 -46,-239 0,0 40,57 72,119l0 -182c-73,-116 -221,-260 -221,-260 0,0 51,175 85,378 33,202 -12,270 -12,270l-106 -3c0,0 -74,-228 -153,-369 -79,-141 -243,-282 -243,-282 0,0 56,62 90,333 34,270 -17,344 -17,344 0,0 -96,17 -231,-12 -136,-28 -265,-152 -265,-152 0,0 -164,-236 -384,-112 -220,123 -11,422 -11,422 -103,15 -482,-386 -224,-905 258,-520 566,-528 600,-538 34,-9 139,56 198,84 60,29 204,190 204,190 0,0 -34,-221 -43,-266 -8,-45 -48,-161 -48,-161 0,0 141,-85 232,-136 90,-51 245,-82 245,-82 0,0 74,37 164,88 55,31 108,73 140,100l0 -315c-40,-2 -65,-3 -65,-3 0,0 8,60 15,117 8,56 8,112 8,112 0,0 -87,-60 -147,-112 -60,-53 -166,-61 -166,-61 0,0 -139,31 -263,83 -124,53 -267,177 -267,177 0,0 34,98 56,143 23,45 23,135 23,135 0,0 -64,-56 -128,-105 -64,-49 -117,-53 -117,-53 0,0 53,-101 143,-195 90,-94 139,-256 139,-256 0,0 -86,45 -203,117 -116,71 -211,60 -211,60 0,0 -56,-196 -82,-373 -27,-177 65,-454 60,-459 -5,-5 122,-317 244,-372 123,-56 236,25 219,22 -17,-3 -171,22 -207,121 -36,99 120,229 120,229 0,0 53,27 203,192 151,166 155,263 155,263 0,0 49,-131 97,-165 49,-34 64,-139 64,-139 0,0 83,15 162,22 63,6 125,7 148,8l0 -75 -100 -11c-35,-3 -115,-297 -28,-551 44,-131 92,-239 128,-313l0 -206zm0 2176l0 0 0 49c-181,53 -381,123 -592,211 12,-14 287,-150 592,-260z"/>
 </g>
</svg>
